<?xml version="1.0" encoding="iso-8859-1"?>
<!-- Generator: Adobe Illustrator 19.0.0, SVG Export Plug-In . SVG Version: 6.00 Build 0)  -->
<svg version="1.1" id="Capa_1" xmlns="http://www.w3.org/2000/svg" xmlns:xlink="http://www.w3.org/1999/xlink" x="0px" y="0px"
	 viewBox="0 0 511.999 511.999" style="enable-background:new 0 0 511.999 511.999;" xml:space="preserve">
<g>
	<g transform="translate(1 1)">
		<path style="fill:#E3E7F2;" d="M437.186,217.952l65.28-65.28L382.829,33.035l-65.279,65.28c-18.036-18.005-47.245-18.005-65.281,0
			l-0.512,0.427c-18.325-13.056-43.4-10.964-59.307,4.949l-65.279-65.28L7.533,158.134l65.28,65.28l-5.461,5.376
			c-18.005,18.035-18.005,47.245,0,65.28l16.298,16.299l0.048,0.039l-5.423,5.423c-12.018,11.994-12.037,31.46-0.043,43.477
			s31.46,12.037,43.477,0.043c-12.018,12.018-12.018,31.502,0,43.52c12.018,12.018,31.502,12.018,43.52,0l14.775-14.774l0.047,0.038
			l-20.198,20.198c-9.002,9.001-9.002,23.596,0,32.597c9.001,9.001,23.596,9.002,32.597,0l16.3-16.299
			c-5.841,5.834-8.12,14.344-5.978,22.317s8.38,14.194,16.358,16.316c7.978,2.122,16.482-0.18,22.301-6.035l10.837-10.837
			l16.3,16.299c9.025,9.025,23.657,9.024,32.682-0.001c9.025-9.025,9.024-23.657-0.001-32.682l16.3,16.384
			c9.036,8.934,23.595,8.883,32.568-0.114c8.973-8.997,8.986-23.555,0.028-32.568l-5.376-5.376c12.018,12.018,31.502,12.018,43.52,0
			c12.018-12.018,12.018-31.502,0-43.52c7.774,7.759,19.097,10.781,29.703,7.928s18.885-11.148,21.717-21.76
			c2.832-10.612-0.212-21.929-7.986-29.688l-10.837-10.923l21.76-21.76c8.646-8.645,13.504-20.371,13.504-32.597
			c0-12.227-4.858-23.952-13.504-32.597L437.186,217.952z"/>
		<g>
			<path style="fill:#D4E1F4;" d="M163.437,308.661c0.022,8.147-3.238,15.96-9.045,21.675l-32.683,32.683
				c-7.774,7.759-19.097,10.781-29.703,7.928c-10.606-2.853-18.885-11.148-21.717-21.76c-2.832-10.612,0.212-21.929,7.986-29.688
				l32.597-32.597c5.768-5.778,13.596-9.024,21.76-9.024s15.992,3.247,21.76,9.024C160.215,292.64,163.476,300.486,163.437,308.661z
				"/>
			<path style="fill:#D4E1F4;" d="M197.912,373.856l-32.683,32.683c-7.774,7.774-19.105,10.81-29.725,7.965
				c-10.62-2.845-18.914-11.14-21.76-21.76c-2.846-10.62,0.191-21.951,7.965-29.725l32.683-32.683
				c12.048-11.946,31.473-11.946,43.521,0v0.085c5.776,5.751,9.023,13.566,9.023,21.717
				C206.936,360.29,203.688,368.105,197.912,373.856z"/>
			<path style="fill:#D4E1F4;" d="M242.712,384.779c0.016,6.114-2.411,11.982-6.741,16.299l-27.221,27.221l-16.3,16.299
				c-9.001,9.001-23.596,9.001-32.597,0c-9.001-9.001-9.001-23.596,0-32.597l43.52-43.52c6.59-6.595,16.505-8.569,25.118-5.001
				C237.104,367.048,242.718,375.456,242.712,384.779L242.712,384.779z"/>
			<path style="fill:#D4E1F4;" d="M291.693,401.078c0.032,6.118-2.397,11.991-6.741,16.299l-43.521,43.52
				c-5.819,5.856-14.323,8.157-22.301,6.035c-7.978-2.122-14.216-8.343-16.358-16.316s0.137-16.482,5.978-22.317l27.221-27.221
				l16.298-16.299c4.329-4.343,10.209-6.784,16.342-6.784s12.012,2.441,16.342,6.784
				C289.295,389.087,291.725,394.96,291.693,401.078z"/>
			<path style="fill:#D4E1F4;" d="M442.648,227.083c8.646,8.645,13.504,20.371,13.504,32.597c0,12.227-4.858,23.952-13.504,32.597
				l-21.76,21.76L274.029,167.179l-21.76,21.76l-38.059,38.144c-12.047,11.947-31.473,11.947-43.52,0
				c-4.286-4.366-7.22-9.878-8.448-15.872c-0.367-1.942-0.567-3.912-0.597-5.888c0.039-8.16,3.288-15.977,9.045-21.76l38.059-38.144
				l43.007-43.008l0.511-0.427c18.036-18.005,47.245-18.005,65.281,0l62.89-62.805l2.389-2.475l119.637,119.637l-65.28,65.28
				L442.648,227.083z"/>
		</g>
		<g>
			<path style="fill:#7FACFA;" d="M307.992,450.059c-0.002,9.34-5.632,17.758-14.264,21.327c-8.631,3.568-18.562,1.584-25.159-5.028
				l-6.145-6.144c10.047,2.426,20.482-2.123,25.544-11.135c5.061-9.012,3.516-20.29-3.784-27.607l16.3,16.384
				c1.752,1.768,3.803,3.213,6.059,4.267C307.523,444.652,308.015,447.346,307.992,450.059z"/>
			<path style="fill:#7FACFA;" d="M440.77,346.72c-0.011,12.428-7.5,23.629-18.98,28.389c-11.48,4.76-24.698,2.145-33.5-6.629
				c7.774,7.774,10.81,19.105,7.965,29.725c-2.846,10.62-11.14,18.914-21.76,21.76s-21.951-0.191-29.725-7.965l5.376,5.376
				c9.007,9.005,9.017,23.603,0.023,32.62c-8.994,9.018-23.592,9.045-32.62,0.062l-6.059-6.144
				c7.762,1.945,15.973-0.359,21.589-6.059c8.987-9.041,8.987-23.642,0-32.683l-5.376-5.376c12.018,12.018,31.502,12.018,43.52,0
				s12.018-31.502,0-43.52c12.018,11.994,31.483,11.975,43.477-0.043c11.994-12.018,11.975-31.483-0.043-43.477l-10.837-10.923
				l2.475-2.389l14.592,14.592l10.837,10.923C437.548,330.699,440.81,338.544,440.77,346.72z"/>
			<path style="fill:#7FACFA;" d="M442.648,227.083c8.646,8.645,13.504,20.371,13.504,32.597c0,12.227-4.858,23.952-13.504,32.597
				l-21.76,21.76l-14.592-14.592l19.285-19.371c8.646-8.645,13.504-20.371,13.504-32.597s-4.858-23.952-13.504-32.597l-5.461-5.461
				l65.28-65.28L380.44,39.179l2.389-2.475l119.637,119.637l-65.28,65.28L442.648,227.083z"/>
		</g>
	</g>
	<g transform="translate(1 14)">
		<path style="fill:#FFFFFF;" d="M16.066,130.968l82.347,83.115l-5.461,5.376c-18.005,18.035-18.005,47.245,0,65.28l-9.217,16.299
			H83.65l-16.298-16.299c-18.005-18.035-18.005-47.245,0-65.28l5.461-5.376l-65.28-65.28L16.066,130.968z"/>
		<path style="fill:#FFFFFF;" d="M200.898,432.622c0.002,9.34,5.632,17.758,14.264,21.327c8.631,3.568,18.562,1.584,25.159-5.028
			l6.145-6.144c-10.047,2.426-20.482-2.123-25.544-11.135c-5.061-9.012-3.516-20.29,3.784-27.607l-16.3,16.384
			c-1.752,1.768-3.803,3.213-6.059,4.267C201.367,427.215,200.875,429.908,200.898,432.622z"/>
		<path style="fill:#FFFFFF;" d="M67.266,328.078c0.011,12.428,7.5,23.629,18.98,28.389s24.698,2.145,33.5-6.629
			c-12.018,12.018-12.018,31.502,0,43.52c12.018,12.018,31.502,12.018,43.52,0l-5.376,5.376c-5.85,5.821-8.147,14.321-6.025,22.296
			c2.122,7.975,8.341,14.209,16.31,16.353s16.476-0.132,22.312-5.966l6.059-6.144c-7.762,1.945-15.973-0.359-21.589-6.059
			c-8.987-9.041-8.987-23.642,0-32.683l5.376-5.376c-12.018,12.018-31.502,12.018-43.52,0c-12.018-12.018-12.018-31.502,0-43.52
			c-7.774,7.759-19.097,10.781-29.703,7.928c-10.606-2.853-18.885-11.148-21.717-21.76c-2.832-10.612,0.212-21.929,7.986-29.688
			l10.837-10.923l-2.475-2.389l-14.592,14.592l-10.837,10.923C70.489,312.056,67.227,319.902,67.266,328.078z"/>
	</g>
	<path style="fill:#428DFF;" d="M389.841,31.651c-3.386-3.2-8.681-3.2-12.067,0l-59.735,59.743
		c-19.897-14.544-47.085-13.898-66.268,1.576c-18.393-9.982-40.892-8.469-57.782,3.887l-59.765-59.772
		c-1.6-1.601-3.77-2.5-6.033-2.5c-2.263,0-4.433,0.899-6.033,2.5L2.5,156.743c-1.601,1.6-2.5,3.77-2.5,6.033s0.899,4.433,2.5,6.033
		l59.259,59.259c-20.759,21.446-20.508,55.57,0.566,76.707l10.348,10.348c-10.897,11.347-13.965,28.104-7.796,42.577
		c6.169,14.472,20.383,23.863,36.115,23.859c1.567-0.059,3.129-0.212,4.677-0.457c-1.423,11.139,2.025,22.352,9.462,30.767
		c7.436,8.415,18.139,13.216,29.369,13.174c0.491,0,0.975-0.121,1.465-0.14c-1.859,12.603,4.085,25.078,15.042,31.576
		c10.957,6.497,24.755,5.727,34.921-1.95c1.43,5.058,4.115,9.672,7.805,13.414c12.352,12.322,32.348,12.322,44.7,0l4.846-4.845
		l10.288,10.287c7.829,7.954,19.295,11.148,30.109,8.387c10.814-2.761,19.345-11.062,22.401-21.796
		c10.101,7.977,24.071,8.91,35.144,2.348c11.072-6.563,16.961-19.266,14.812-31.956c0.493,0.018,0.962,0.143,1.458,0.143
		c21.729-0.013,39.335-17.637,39.325-39.367c-0.069-1.546-0.229-3.086-0.477-4.614c1.546,0.241,3.105,0.39,4.669,0.447
		c15.9,0.02,30.242-9.55,36.327-24.239c6.085-14.689,2.712-31.598-8.544-42.828l-4.845-4.845l15.728-15.722
		c21.075-21.139,21.325-55.266,0.561-76.711l59.263-59.264c1.601-1.6,2.5-3.77,2.5-6.033s-0.899-4.433-2.5-6.033L389.841,31.651z
		 M85.275,357.977c-8.667-8.689-8.667-22.753,0-31.442l32.633-32.633c5.617-5.617,13.803-7.81,21.475-5.754
		c7.672,2.056,13.665,8.049,15.721,15.721c2.056,7.672-0.138,15.859-5.754,21.475l-32.633,32.633
		C107.919,366.377,94.072,366.377,85.275,357.977z M128.783,401.493c-8.667-8.692-8.667-22.758,0-31.45l32.633-32.633
		c8.687-8.662,22.748-8.652,31.422,0.022c8.675,8.674,8.685,22.735,0.023,31.422l-32.677,32.672
		C151.494,410.163,137.456,410.148,128.783,401.493L128.783,401.493z M166.85,439.56c-5.667-5.685-5.667-14.882,0-20.567
		l5.402-5.401l0.04-0.032l32.633-32.633l0.004-0.006l5.438-5.436c5.678-5.664,14.87-5.661,20.545,0.005
		c5.675,5.667,5.691,14.858,0.036,20.545l-27.214,27.208l-0.014,0.017l-16.303,16.3C181.732,445.227,172.534,445.227,166.85,439.56z
		 M215.8,455.877c-5.66-5.679-5.666-14.864-0.014-20.55L243,408.118l0.014-0.017l16.303-16.3c3.674-3.674,9.029-5.109,14.047-3.764
		c5.019,1.345,8.939,5.265,10.283,10.283c1.345,5.019-0.09,10.373-3.764,14.047l-43.517,43.508
		C230.682,461.543,221.484,461.543,215.8,455.877z M296.2,461.318c-5.685,5.667-14.882,5.667-20.567,0l-10.285-10.286l20.569-20.565
		l10.275,10.275C301.855,446.431,301.859,455.626,296.2,461.318L296.2,461.318z M426.725,363.418
		c-8.689,8.667-22.753,8.667-31.442,0l-70.7-70.708c-3.332-3.332-8.735-3.332-12.067,0c-3.332,3.332-3.332,8.735,0,12.067
		l70.7,70.708c4.182,4.163,6.533,9.82,6.533,15.721c0,5.901-2.351,11.558-6.533,15.721c-8.825,8.513-22.822,8.454-31.575-0.133
		l-21.475-20.525c-3.408-3.241-8.797-3.114-12.048,0.284c-3.252,3.399-3.141,8.787,0.248,12.049l21.342,20.392l5.433,5.433
		c3.687,3.67,5.132,9.03,3.791,14.056c-1.341,5.026-5.265,8.953-10.29,10.298c-5.025,1.345-10.386-0.096-14.059-3.78l-27.535-27.535
		c7.354-12.957,4.603-29.296-6.589-39.13s-27.749-10.461-39.653-1.502c-4.231-15.076-19.052-24.619-34.527-22.232
		c0.524-11.474-4.056-22.592-12.511-30.367c-8.454-7.775-19.916-11.41-31.306-9.929c2.057-16.611-6.668-32.694-21.714-40.028
		c-15.046-7.333-33.089-4.297-44.907,7.557l-21.163,21.163L74.391,292.71c-14.663-14.699-14.663-38.492,0-53.192l5.442-5.433
		c1.604-1.6,2.504-3.775,2.5-6.041c0-0.131-0.069-0.253-0.075-0.384c-0.07-2.12-0.932-4.136-2.417-5.651l-0.025-0.017L20.6,162.776
		L128.191,55.185l59.225,59.233c1.6,1.601,3.77,2.5,6.033,2.5c2.263,0,4.433-0.899,6.033-2.5
		c10.21-10.236,25.416-13.651,39.023-8.764l-72.84,72.839c-15.321,15.352-15.309,40.212,0.026,55.549
		c15.335,15.337,40.195,15.352,55.549,0.034l53.796-53.796l151.688,151.695c4.182,4.163,6.533,9.82,6.533,15.721
		C433.258,353.598,430.907,359.255,426.725,363.418L426.725,363.418z M432.166,216.568c-1.601,1.6-2.5,3.77-2.5,6.033
		c0,2.263,0.899,4.433,2.5,6.033l5.442,5.442c14.662,14.702,14.662,38.497,0,53.2l-15.727,15.721L287.104,168.214l15.721-15.721
		c3.332-3.332,3.332-8.735,0-12.067c-3.332-3.332-8.735-3.332-12.067,0l-21.733,21.733L269,162.177l-0.017,0.025l-59.808,59.808
		c-8.797,8.4-22.644,8.4-31.442,0c-4.182-4.164-6.533-9.823-6.533-15.725c0-5.902,2.351-11.561,6.533-15.725l81.583-81.575
		c14.696-14.678,38.504-14.678,53.2,0l10.875,10.875c3.332,3.332,8.735,3.332,12.067,0s3.332-8.735,0-12.067l-4.842-4.842
		l53.192-53.2L491.4,157.335L432.166,216.568z"/>
</g>
<g>
</g>
<g>
</g>
<g>
</g>
<g>
</g>
<g>
</g>
<g>
</g>
<g>
</g>
<g>
</g>
<g>
</g>
<g>
</g>
<g>
</g>
<g>
</g>
<g>
</g>
<g>
</g>
<g>
</g>
</svg>
