<?xml version="1.0" encoding="iso-8859-1"?>
<!-- Generator: Adobe Illustrator 19.0.0, SVG Export Plug-In . SVG Version: 6.00 Build 0)  -->
<svg version="1.1" id="Capa_1" xmlns="http://www.w3.org/2000/svg" xmlns:xlink="http://www.w3.org/1999/xlink" x="0px" y="0px"
	 viewBox="0 0 512 512" style="enable-background:new 0 0 512 512;" xml:space="preserve">
<g>
	<path style="fill:#59AA33;" d="M195.8,139.631c0,67.71,60.217,93.866,60.217,93.866s60.217-26.156,60.217-93.866
		s-59.74-93.518-60.217-93.869C256.017,45.761,195.8,71.921,195.8,139.631z"/>
	<path style="fill:#59AA33;" d="M181.27,371.974c58.639-33.855,51.182-99.083,51.182-99.083s-52.76-39.072-111.399-5.217
		s-51.119,98.495-51.185,99.084C69.868,366.759,122.631,405.829,181.27,371.974z"/>
	<path style="fill:#59AA33;" d="M390.956,267.653c-58.639-33.855-111.399,5.217-111.399,5.217s-7.457,65.228,51.182,99.083
		s110.858-4.978,111.402-5.215C442.14,366.736,449.594,301.508,390.956,267.653z"/>
</g>
<path d="M218.849,219.039c16.208,16.152,32.499,23.334,33.184,23.631c1.271,0.552,2.627,0.828,3.984,0.828
	c1.357,0,2.713-0.276,3.984-0.828c0.686-0.297,16.976-7.479,33.184-23.631c21.622-21.548,33.05-49.007,33.05-79.408
	c0-67.807-54.598-97.458-65.544-102.714l-0.073-0.035c-2.648-1.372-5.804-1.502-8.587-0.293c-0.686,0.298-16.976,7.48-33.184,23.633
	c-21.622,21.549-33.05,49.008-33.05,79.409S197.227,197.491,218.849,219.039z M232.459,74.899
	c9.133-9.23,18.41-15.064,23.527-17.902c14.085,7.791,50.247,32.669,50.247,82.634c0,25.074-8.969,46.851-26.658,64.73
	c-4.675,4.725-9.384,8.553-13.557,11.551v-76.283c0-5.524-4.478-10.001-10.001-10.001s-10.001,4.478-10.001,10.001v76.282
	c-4.173-2.998-8.882-6.827-13.557-11.551c-17.689-17.877-26.658-39.656-26.658-64.73S214.77,92.778,232.459,74.899z"/>
<path d="M130.866,395.758c19.236,0,38.011-5.081,55.404-15.123c26.329-15.201,44.394-38.828,52.244-68.326
	c5.885-22.113,3.958-39.811,3.873-40.554c-0.314-2.753-1.757-5.252-3.984-6.901c-0.601-0.445-14.964-10.962-37.056-16.923
	c-29.472-7.952-58.966-4.119-85.295,11.082C57.331,292.916,58.95,355.025,59.87,367.131l0.006,0.083
	c0.135,2.978,1.599,5.775,4.039,7.582c0.601,0.445,14.965,10.961,37.058,16.921C110.978,394.417,120.982,395.758,130.866,395.758z
	 M126.054,276.337c21.714-12.537,45.058-15.659,69.386-9.278c6.429,1.686,12.099,3.85,16.783,5.965l-66.052,38.14
	c-4.784,2.762-6.422,8.879-3.66,13.663c1.853,3.208,5.214,5.002,8.67,5.002c1.697,0,3.417-0.432,4.992-1.341l66.053-38.141
	c-1.994,19.696-10.832,52.688-45.957,72.969c-21.715,12.537-45.061,15.658-69.388,9.279c-12.56-3.294-22.251-8.413-27.267-11.424
	C79.319,345.075,82.784,301.319,126.054,276.337z"/>
<path d="M395.956,258.991c-26.329-15.201-55.822-19.031-85.295-11.082c-22.093,5.961-36.456,16.478-37.056,16.923
	c-2.227,1.649-3.669,4.147-3.984,6.901c-0.085,0.743-2.011,18.44,3.873,40.554c7.85,29.498,25.916,53.125,52.244,68.325
	c19.478,11.246,38.317,15.19,55.174,15.189c33.959-0.002,59.849-16.015,66.548-20.592l0.068-0.047
	c2.512-1.606,4.204-4.272,4.548-7.29c0.084-0.743,2.01-18.441-3.875-40.554C440.351,297.819,422.284,274.192,395.956,258.991z
	 M432.425,361.092c-13.79,8.301-53.418,27.178-96.685,2.198c-21.715-12.536-36.09-31.193-42.728-55.451
	c-1.753-6.409-2.715-12.399-3.225-17.512l66.06,38.157c1.576,0.91,3.295,1.342,4.994,1.342c3.455,0,6.817-1.792,8.669-5.001
	c2.763-4.784,1.125-10.9-3.657-13.663l-66.072-38.164c18.053-8.122,51.048-16.967,86.176,3.313
	c21.715,12.537,36.09,31.194,42.73,55.452C432.113,344.291,432.525,355.241,432.425,361.092z"/>
<path d="M402.995,437.497c-90.898,72.525-223.508,67.12-308.462-12.572c-4.027-3.778-10.357-3.576-14.137,0.452
	c-3.778,4.028-3.576,10.357,0.452,14.137c45.155,42.358,104.059,66.91,165.86,69.132c3.089,0.111,6.167,0.167,9.248,0.167
	c57.965,0,114.292-19.598,159.515-55.679c4.318-3.444,5.025-9.737,1.58-14.056C413.605,434.759,407.313,434.052,402.995,437.497z"/>
<path d="M428.255,414.154l-0.184,0.195c-3.783,4.024-3.587,10.354,0.437,14.137c1.931,1.815,4.392,2.714,6.848,2.714
	c2.663,0,5.321-1.058,7.289-3.151l0.184-0.195c3.783-4.024,3.587-10.354-0.437-14.137
	C438.367,409.933,432.039,410.129,428.255,414.154z"/>
<path d="M482.199,132.906c-28.694-54.103-75.736-96.15-132.457-118.396c-5.142-2.015-10.945,0.517-12.963,5.659
	c-2.017,5.143,0.517,10.945,5.659,12.963C450.696,75.589,512.32,193.136,485.783,306.554c-1.258,5.378,2.081,10.758,7.459,12.016
	c0.767,0.18,1.532,0.266,2.287,0.266c4.541,0,8.65-3.113,9.729-7.725C519.364,250.827,511.175,187.538,482.199,132.906z"/>
<path d="M309.589,22.926l0.261,0.062c0.771,0.182,1.542,0.269,2.301,0.269c4.535,0,8.642-3.105,9.726-7.711
	c1.266-5.377-2.066-10.761-7.442-12.027l-0.261-0.062c-5.376-1.266-10.761,2.066-12.027,7.442
	C300.881,16.275,304.214,21.66,309.589,22.926z"/>
<path d="M14.225,299.086c5.462-0.825,9.221-5.921,8.397-11.382C5.263,172.722,76.249,60.58,187.741,26.853
	c5.287-1.599,8.276-7.182,6.677-12.468c-1.6-5.288-7.186-8.278-12.468-6.677C122.688,25.634,71.974,64.371,39.149,116.781
	C6.642,168.683-6.252,230.444,2.842,290.689c0.749,4.957,5.013,8.51,9.877,8.51C13.216,299.199,13.72,299.162,14.225,299.086z"/>
<path d="M30.133,321.002c-1.589-5.291-7.166-8.291-12.455-6.701c-5.29,1.589-8.29,7.166-6.701,12.455l0.077,0.257
	c1.301,4.331,5.274,7.126,9.574,7.126c0.953,0,1.921-0.137,2.881-0.425c5.29-1.589,8.29-7.166,6.701-12.455L30.133,321.002z"/>
<g>
</g>
<g>
</g>
<g>
</g>
<g>
</g>
<g>
</g>
<g>
</g>
<g>
</g>
<g>
</g>
<g>
</g>
<g>
</g>
<g>
</g>
<g>
</g>
<g>
</g>
<g>
</g>
<g>
</g>
</svg>
