<svg height="480pt" viewBox="0 0 480 480" width="480pt" xmlns="http://www.w3.org/2000/svg"><path d="m307.121094 372.640625-7.199219-.640625c-3.3125 11.863281-15.066406 19.296875-27.203125 17.199219l-54.398438-9.597657-13.679687 8.476563 76.078125 17.121094c8.574219 1.492187 17.28125-1.769531 22.761719-8.527344s6.871093-15.953125 3.640625-24.03125zm0 0" fill="#cff09e"/><path d="m8 296h104v176h-104zm0 0" fill="#79bd9a"/><path d="m112 312h50v144h-50zm0 0" fill="#a8dba8"/><path d="m80 424c0 8.835938-7.164062 16-16 16s-16-7.164062-16-16 7.164062-16 16-16 16 7.164062 16 16zm0 0" fill="#cff09e"/><path d="m354.320312 402.238281c-22.660156 9.105469-46.859374 13.777344-71.28125 13.761719h-121.039062v24h150.640625c12-.015625 23.558594-4.523438 32.398437-12.640625l41.441407-38zm0 0" fill="#cff09e"/><path d="m384 326.558594c4.332031-4.097656 10.035156-6.4375 16-6.558594v-16h-40v32h13.761719zm0 0" fill="#a8dba8"/><path d="m240 136h72v64h-72zm0 0" fill="#a8dba8"/><path d="m202.320312 328 78.800782 13.921875c13.019531 2.3125 21.714844 14.730469 19.4375 27.757813 0 .800781 0 1.519531-.636719 2.320312l24.558594 2.160156c4.457031.375 8.867187-1.136718 12.160156-4.160156l23.359375-21.441406v-84.558594c0-44.183594-35.816406-80-80-80h-8c-44.183594 0-80 35.816406-80 80v64zm0 0" fill="#a8dba8"/><path d="m308 72c-8.835938 0-16 7.164062-16 16 0-8.835938-7.164062-16-16-16s-16 7.164062-16 16c0-8.835938-7.164062-16-16-16s-16 7.164062-16 16v32c0 17.671875 14.328125 32 32 32h32c17.671875 0 32-14.328125 32-32v-32c0-8.835938-7.164062-16-16-16zm0 0" fill="#a8dba8"/><path d="m236 152h80c8.835938 0 16 7.164062 16 16s-7.164062 16-16 16h-80c-8.835938 0-16-7.164062-16-16s7.164062-16 16-16zm0 0" fill="#cff09e"/><path d="m360 240h40v32h-40zm0 0" fill="#a8dba8"/><g fill="#cff09e"><path d="m360 272h40v32h-40zm0 0"/><path d="m384 208h32c4.417969 0 8 3.582031 8 8v16c0 4.417969-3.582031 8-8 8h-32c-4.417969 0-8-3.582031-8-8v-16c0-4.417969 3.582031-8 8-8zm0 0"/><path d="m424 72v-40l-48 64h24v48h48v-22.078125c-15.160156-12.140625-23.988281-30.503906-24-49.921875zm0 0"/><path d="m112 80v-72l-72 96h40v80h64v-40c-20.144531-15.109375-32-38.820312-32-64zm0 0"/></g><path d="m408 313.121094v-65.121094h8c8.835938 0 16-7.164062 16-16v-16c0-8.835938-7.164062-16-16-16h-32c-8.835938 0-16 7.164062-16 16v16h-6c-6.941406-17.574219-19.296875-32.480469-35.28125-42.558594 8.71875-4.398437 13.902344-13.640625 13.113281-23.371094-.789062-9.734374-7.398437-18.015624-16.710937-20.949218 5.742187-7.113282 8.875-15.980469 8.878906-25.121094v-32c0-13.253906-10.746094-24-24-24-5.910156.011719-11.605469 2.207031-16 6.160156-9.109375-8.148437-22.890625-8.148437-32 0-4.394531-3.953125-10.089844-6.148437-16-6.160156-13.253906 0-24 10.746094-24 24v32c.003906 9.140625 3.136719 18.007812 8.878906 25.121094-9.3125 2.933594-15.921875 11.214844-16.710937 20.949218-.789063 9.730469 4.394531 18.972657 13.113281 23.371094-25.679688 16.085938-41.277344 44.253906-41.28125 74.558594v56h-14v-8c0-4.417969-3.582031-8-8-8h-42v-8c0-4.417969-3.582031-8-8-8h-104c-4.417969 0-8 3.582031-8 8v176c0 4.417969 3.582031 8 8 8h104c4.417969 0 8-3.582031 8-8v-8h42c4.417969 0 8-3.582031 8-8v-8h142.640625c14.011719 0 27.511719-5.253906 37.839844-14.71875l70.398437-64.5625c13.117188-11.441406 14.914063-31.175781 4.082032-44.796875-4.347657-5.332031-10.292969-9.117187-16.960938-10.800781zm-29.359375 7.519531-10.640625 9.757813v-18.398438h24v1.28125c-4.980469 1.339844-9.566406 3.863281-13.359375 7.359375zm13.359375-24.640625h-24v-16h24zm-8-80h32v16h-32zm-16 32h24v16h-24zm-132-160c0-4.417969 3.582031-8 8-8s8 3.582031 8 8 3.582031 8 8 8 8-3.582031 8-8 3.582031-8 8-8 8 3.582031 8 8 3.582031 8 8 8 8-3.582031 8-8 3.582031-8 8-8 8 3.582031 8 8v32c0 13.253906-10.746094 24-24 24h-32c-13.253906 0-24-10.746094-24-24zm0 88c-4.417969 0-8-3.582031-8-8s3.582031-8 8-8h80c4.417969 0 8 3.582031 8 8s-3.582031 8-8 8zm-36 88c0-39.765625 32.234375-72 72-72h8c39.765625 0 72 32.234375 72 72v81.039062l-20.71875 19.039063c-1.667969 1.535156-3.90625 2.292969-6.160156 2.082031l-16-1.441406c-.375-14.652344-10.660156-27.179688-24.960938-30.398438v-7.519531c13.265625-4.015625 21.601563-17.128906 19.597656-30.847656-2.003906-13.714844-13.738281-23.898437-27.597656-23.953125-6.628906 0-12-5.371094-12-12s5.371094-12 12-12c6.546875.128906 11.796875 5.453125 11.839844 12 0 4.417969 3.582031 8 8 8s8-3.582031 8-8c-.039062-12.363281-8.160156-23.242188-20-26.800781v-9.199219c0-4.417969-3.582031-8-8-8s-8 3.582031-8 8v9.199219c-13.265625 4.015625-21.601562 17.128906-19.597656 30.847656 2.003906 13.714844 13.738281 23.898437 27.597656 23.953125 6.628906 0 12 5.371094 12 12s-5.371094 12-12 12-12-5.371094-12-12c0-4.417969-3.582031-8-8-8s-8 3.582031-8 8c.039062 12.363281 8.160156 23.242188 20 26.800781v4.640625l-64-11.28125c-.449219-.078125-.910156-.078125-1.359375 0h-2.640625zm-96 200h-88v-160h88zm50-16h-34v-128h34zm256-91.039062-70.398438 64.558593c-7.367187 6.734375-16.980468 10.472657-26.960937 10.480469h-142.640625v-96h31.601562l78.398438 13.761719c8.460938 1.65625 14.089844 9.722656 12.71875 18.238281v.480469c-.269531.667969-.457031 1.367187-.558594 2.078125-2.613281 7.355468-10.152344 11.75-17.839844 10.402344l-54.800781-9.679688c-4.351562-.777344-8.507812 2.125-9.28125 6.480469-.773437 4.351562 2.128907 8.507812 6.480469 9.277343l54.800781 9.679688c1.851563.316406 3.722657.476562 5.601563.480469 11.839844-.015625 22.703125-6.570313 28.238281-17.039063l18.5625 1.601563c6.585937.667969 13.160156-1.417969 18.15625-5.761719l47.363281-43.519531c2.601563-2.488281 5.941406-4.0625 9.519532-4.480469h2.398437c4.40625.308594 8.488281 2.421875 11.28125 5.839844 5.398437 7.171875 4.277344 17.304687-2.5625 23.121094zm0 0" fill="#3b8686"/><path d="m64 400c-13.253906 0-24 10.746094-24 24s10.746094 24 24 24 24-10.746094 24-24-10.746094-24-24-24zm0 32c-4.417969 0-8-3.582031-8-8s3.582031-8 8-8 8 3.582031 8 8-3.582031 8-8 8zm0 0" fill="#3b8686"/><path d="m478.398438 91.199219-48-64c-1.507813-2.011719-3.878907-3.199219-6.398438-3.199219s-4.890625 1.1875-6.398438 3.199219l-48 64c-1.820312 2.425781-2.113281 5.667969-.757812 8.378906s4.125 4.421875 7.15625 4.421875h16v40c0 4.417969 3.582031 8 8 8h48c4.417969 0 8-3.582031 8-8v-40h16c3.03125 0 5.800781-1.710938 7.15625-4.421875s1.0625-5.953125-.757812-8.378906zm-30.398438-3.199219c-4.417969 0-8 3.582031-8 8v40h-32v-40c0-4.417969-3.582031-8-8-8h-8l32-42.640625 32 42.640625zm0 0" fill="#3b8686"/><path d="m40 112h32v72c0 4.417969 3.582031 8 8 8h24v32c0 4.417969 3.582031 8 8 8s8-3.582031 8-8v-32h24c4.417969 0 8-3.582031 8-8v-72h32c3.03125 0 5.800781-1.710938 7.15625-4.421875s1.0625-5.953125-.757812-8.378906l-72-96c-1.507813-2.011719-3.878907-3.199219-6.398438-3.199219s-4.890625 1.1875-6.398438 3.199219l-72 96c-1.820312 2.425781-2.113281 5.667969-.757812 8.378906s4.125 4.421875 7.15625 4.421875zm72-90.640625 56 74.640625h-24c-4.417969 0-8 3.582031-8 8v72h-16v-48c0-4.417969-3.582031-8-8-8s-8 3.582031-8 8v48h-16v-72c0-4.417969-3.582031-8-8-8h-24zm0 0" fill="#3b8686"/></svg>