<svg height="512pt" viewBox="-45 0 511 512" width="512pt" xmlns="http://www.w3.org/2000/svg"><g fill-rule="evenodd"><path d="m310.5 110c0 55.230469-44.773438 100-100 100-55.230469 0-100-44.769531-100-100 0-55.226562 44.769531-100 100-100 55.226562 0 100 44.773438 100 100zm0 0" fill="#ffba4a"/><path d="m370.5 250h-320c-22 0-40 18-40 40s18 40 40 40h320c22 0 40-18 40-40s-18-40-40-40zm0 0" fill="#fd4848"/><path d="m370.5 330h-320c-22 0-40-18-40-40v172c0 22 18 40 40 40h320c22 0 40-17.996094 40-40v-172c0 22-18 40-40 40zm0 0" fill="#ff836c"/></g><path d="m197.933594 115.621094 17.476562 7.238281c2.179688.902344 3.886719 2.617187 4.804688 4.832031.914062 2.214844.921875 4.632813.019531 6.8125-.902344 2.179688-2.621094 3.886719-4.832031 4.804688-2.214844.914062-4.632813.925781-6.8125.019531l-8.738282-3.617187c-5.101562-2.109376-10.953124.308593-13.066406 5.410156-2.113281 5.101562.308594 10.953125 5.410156 13.066406l8.304688 3.4375v12.375c0 5.519531 4.476562 10 10 10s10-4.480469 10-10v-11.292969c.859375-.269531 1.714844-.574219 2.554688-.921875 7.152343-2.960937 12.710937-8.511718 15.660156-15.628906 2.945312-7.113281 2.9375-14.972656-.023438-22.121094-2.960937-7.148437-8.511718-12.707031-15.625-15.65625l-17.472656-7.234375c-4.542969-1.882812-6.707031-7.109375-4.828125-11.648437.90625-2.179688 2.621094-3.886719 4.835937-4.804688 2.210938-.914062 4.628907-.921875 6.8125-.019531l8.738282 3.617187c5.101562 2.117188 10.953125-.308593 13.0625-5.410156 2.117187-5.101562-.308594-10.953125-5.410156-13.066406l-8.304688-3.4375v-12.375c0-5.519531-4.480469-10-10-10-5.523438 0-10 4.480469-10 10v11.292969c-.863281.269531-1.714844.574219-2.558594.921875-7.148437 2.960937-12.707031 8.511718-15.65625 15.625-6.097656 14.730468.921875 31.679687 15.648438 37.78125zm0 0"/><path d="m210.5 220c60.652344 0 110-49.347656 110-110s-49.347656-110-110-110c-60.65625 0-110 49.347656-110 110s49.34375 110 110 110zm0-200c49.625 0 90 40.375 90 90s-40.375 90-90 90-90-40.375-90-90 40.375-90 90-90zm0 0"/><path d="m108.5 300h203.996094c5.523437 0 10-4.476562 10-10 0-5.519531-4.476563-10-10-10h-203.996094c-5.523438 0-10 4.480469-10 10 0 5.523438 4.476562 10 10 10zm0 0"/><path d="m370.5 240h-240c-5.523438 0-10 4.480469-10 10 0 5.523438 4.476562 10 10 10h240c16.539062 0 30 13.457031 30 30s-13.460938 30-30 30h-320c-16.542969 0-30-13.457031-30-30s13.457031-30 30-30c5.523438 0 10-4.476562 10-10 0-5.519531-4.476562-10-10-10-27.570312 0-50 22.429688-50 50v172c0 27.570312 22.429688 50 50 50h239.996094c5.523437 0 10-4.476562 10-10s-4.476563-10-10-10h-239.996094c-16.542969 0-30-13.457031-30-30v-132.027344c8.363281 6.292969 18.753906 10.027344 30 10.027344h320c11.246094 0 21.636719-3.734375 30-10.027344v132.027344c0 16.542969-13.460938 30-30 30-5.523438 0-10 4.476562-10 10s4.476562 10 10 10c27.570312 0 50-22.429688 50-50v-172c0-27.570312-22.429688-50-50-50zm0 0"/><path d="m90.503906 260c5.523438 0 10-4.476562 10-10 0-5.519531-4.476562-10-10-10h-.007812c-5.523438 0-9.996094 4.480469-9.996094 10 0 5.523438 4.480469 10 10.003906 10zm0 0"/><path d="m330.5 492h-.003906c-5.523438 0-9.996094 4.476562-9.996094 10s4.480469 10 10 10c5.523438 0 10-4.476562 10-10s-4.476562-10-10-10zm0 0"/></svg>